PathFileType	4	(X/Y/Z)	/Users/itak/Documents/Research/Walk-IL/dataset/trc/00182_00008.trc
DataRate	CameraRate	NumFrames	NumMarkers	Units	OrigDataRate	OrigDataStartFrame	OrigNumFrames
100.000000	100.000000	4	53	mm	100.000000	497	796
Frame#	Time	RPSI			LPSI			L3			STRN			T10			C7			CLAV			RBAK			LBAK			LSHO			LUPA			LAEL			LAOL			LWTS			LWPS			LFRA			LIFD			LHPS			LHTS			RSHO			RUPA			RAEL			RAOL			RWTS			RWPS			RFRA			RIFD			RHTS			RHPS			RBHD			LFHD			RFHD			LBHD			LHIP			RHIP			RASI			LASI			LKNE			LTHI			LANK			LTIP			LTOE			LMT1			LMT5			LHEE			RKNE			RTHI			RANK			RTIP			RTOE			RMT1			RMT5			RHEE			
		X1	Y1	Z1	X2	Y2	Z2	X3	Y3	Z3	X4	Y4	Z4	X5	Y5	Z5	X6	Y6	Z6	X7	Y7	Z7	X8	Y8	Z8	X9	Y9	Z9	X10	Y10	Z10	X11	Y11	Z11	X12	Y12	Z12	X13	Y13	Z13	X14	Y14	Z14	X15	Y15	Z15	X16	Y16	Z16	X17	Y17	Z17	X18	Y18	Z18	X19	Y19	Z19	X20	Y20	Z20	X21	Y21	Z21	X22	Y22	Z22	X23	Y23	Z23	X24	Y24	Z24	X25	Y25	Z25	X26	Y26	Z26	X27	Y27	Z27	X28	Y28	Z28	X29	Y29	Z29	X30	Y30	Z30	X31	Y31	Z31	X32	Y32	Z32	X33	Y33	Z33	X34	Y34	Z34	X35	Y35	Z35	X36	Y36	Z36	X37	Y37	Z37	X38	Y38	Z38	X39	Y39	Z39	X40	Y40	Z40	X41	Y41	Z41	X42	Y42	Z42	X43	Y43	Z43	X44	Y44	Z44	X45	Y45	Z45	X46	Y46	Z46	X47	Y47	Z47	X48	Y48	Z48	X49	Y49	Z49	X50	Y50	Z50	X51	Y51	Z51	X52	Y52	Z52	X53	Y53	Z53	

498	4.97	-539.2445068359375	1060.631103515625	-752.3189086914062	-459.1450500488281	1057.267822265625	-660.8207397460938	-503.14990234375	1097.149169921875	-708.0235595703125	-701.6320190429688	1300.041137695312	-518.4322509765625	-478.8847351074219	1258.2451171875	-722.3541259765625	-525.4610595703125	1522.76513671875	-655.1349487304688	-675.8309936523438	1415.085083007812	-524.1519165039062	-548.3958129882812	1355.820678710938	-789.4741821289062	-452.7569580078125	1498.3310546875	-587.4877319335938	-457.5588684082031	1482.142456054688	-478.6730651855469	-372.7479248046875	1356.207641601562	-458.7852172851562	-345.1988830566406	1141.526489257812	-453.9993896484375	-369.3667602539062	1127.33056640625	-538.4193725585938	-435.9744567871094	909.4841918945312	-385.763427734375	-355.6373901367188	886.994873046875	-424.9535217285156	-340.9779052734375	1030.053100585938	-434.6160583496094	-467.0755004882812	726.1406860351562	-387.9554138183594	-374.2664489746094	817.497802734375	-410.6045837402344	-428.3230590820312	830.48876953125	-363.9856567382812	-689.173583984375	1509.203369140625	-745.5084228515625	-720.3173828125	1452.395751953125	-815.93701171875	-766.6950073242188	1183.543090820312	-914.8714599609375	-708.6773071289062	1155.752807617188	-842.3670654296875	-909.9075927734375	971.9935913085938	-840.7890014648438	-877.3407592773438	953.6972045898438	-920.8350830078125	-810.166015625	1117.19970703125	-922.3057250976562	-943.5888671875	787.2786865234375	-822.952880859375	-955.0214233398438	885.318115234375	-840.0767211914062	-915.5203247070312	876.0128173828125	-909.0066528320312	-628.7883911132812	1683.904541015625	-665.8944702148438	-598.8653564453125	1726.2265625	-453.7896118164062	-707.8360595703125	1738.71826171875	-519.1468505859375	-508.3012390136719	1678.180786132812	-601.7229614257812	-451.8392028808594	995.0801391601562	-503.5333862304688	-734.0020141601562	1017.982360839844	-746.5978393554688	-761.3263549804688	1041.615112304688	-651.788330078125	-584.1296997070312	1031.389282226562	-464.0693359375	-623.015869140625	517.5582885742188	-374.0522155761719	-560.8204345703125	655.2755737304688	-399.6345520019531	-635.0638427734375	54.85940170288086	-506.1966247558594	-618.531005859375	285.2279663085938	-430.9974060058594	-746.2048950195312	74.39801788330078	-325.8359680175781	-769.0015258789062	65.98744964599609	-387.65087890625	-645.2725830078125	51.99948883056641	-393.2467956542969	-674.3829345703125	61.16819000244141	-581.0498657226562	-714.69140625	518.21728515625	-754.5291748046875	-771.7261962890625	786.4121704101562	-729.677001953125	-606.8480834960938	32.34418106079102	-838.4352416992188	-705.9852294921875	394.0800170898438	-748.1389770507812	-774.3648071289062	44.33584213256836	-694.4653930664062	-708.3001098632812	48.56642150878906	-683.6286010742188	-719.591796875	26.81728172302246	-811.4102783203125	-528.1914672851562	42.21804428100586	-805.5555419921875	
499	4.98	-546.446044921875	1059.501708984375	-748.4185791015625	-465.2164611816406	1055.830078125	-657.9594116210938	-509.8680114746094	1095.877319335938	-704.459228515625	-706.0714111328125	1298.543701171875	-512.0975952148438	-485.8758850097656	1256.880126953125	-718.797119140625	-531.3692626953125	1521.336669921875	-650.5917358398438	-680.2216796875	1413.57861328125	-517.9398803710938	-556.0750122070312	1354.66064453125	-784.9295654296875	-457.8714294433594	1496.726806640625	-583.8667602539062	-461.3356628417969	1480.373901367188	-475.0228576660156	-376.6975708007812	1353.992309570312	-456.5833740234375	-350.1769104003906	1139.080444335938	-452.6507263183594	-375.6849670410156	1125.030883789062	-536.7241821289062	-442.5115966796875	908.1970825195312	-382.6930541992188	-362.8836364746094	884.675537109375	-422.699951171875	-346.7893371582031	1027.537963867188	-433.1243591308594	-475.7724304199219	725.1921997070312	-384.0172424316406	-382.177734375	815.380126953125	-407.9163818359375	-435.6258544921875	829.2075805664062	-360.7495422363281	-696.1773681640625	1508.076293945312	-738.9772338867188	-728.2484741210938	1451.414916992188	-809.1282348632812	-776.5870971679688	1182.805908203125	-907.75439453125	-717.7698974609375	1154.724365234375	-836.0491333007812	-919.4886474609375	971.4031372070312	-832.533447265625	-887.8363647460938	953.2645263671875	-913.0244140625	-820.33154296875	1116.60498046875	-914.7958374023438	-953.2947998046875	786.676513671875	-814.8543090820312	-964.7717895507812	884.812255859375	-831.5548095703125	-926.0440673828125	875.6109008789062	-900.9948120117188	-634.8746948242188	1682.677490234375	-659.699951171875	-602.54736328125	1724.3974609375	-447.8359680175781	-712.25146484375	1736.97607421875	-511.8380737304688	-513.5934448242188	1676.92333984375	-596.972900390625	-456.1202087402344	993.3695678710938	-500.8597717285156	-741.100341796875	1016.905822753906	-740.395263671875	-767.2811279296875	1040.32177734375	-645.2115478515625	-587.841796875	1029.760131835938	-459.6612548828125	-627.3590698242188	516.9371948242188	-368.8988952636719	-563.70068359375	653.75537109375	-395.3229064941406	-654.5554809570312	50.25590133666992	-483.6895446777344	-629.7547607421875	283.1358642578125	-417.7306823730469	-761.0303955078125	79.02072143554688	-301.8131713867188	-785.3173217773438	69.27462768554688	-362.8116149902344	-662.362548828125	51.33644104003906	-370.5151062011719	-695.1296997070312	55.46154022216797	-557.8018798828125	-717.472900390625	517.6134033203125	-751.7142333984375	-776.9479370117188	785.0309448242188	-724.1117553710938	-606.8778076171875	32.69858551025391	-838.2046508789062	-707.7060546875	393.5292663574219	-746.0056762695312	-774.57568359375	43.88370132446289	-694.0924072265625	-708.4004516601562	48.3162727355957	-683.3673706054688	-719.6351318359375	26.84448051452637	-811.39111328125	-528.1619262695312	42.56700897216797	-805.3101196289062	
500	4.99	-553.5188598632812	1058.2021484375	-744.3416748046875	-471.1985168457031	1054.211181640625	-654.8961791992188	-516.4846801757812	1094.432250976562	-700.69921875	-710.447509765625	1296.89990234375	-505.6404113769531	-492.7684326171875	1255.3349609375	-715.015869140625	-537.1470336914062	1519.74658203125	-645.8637084960938	-684.51904296875	1411.920776367188	-511.61083984375	-563.5515747070312	1353.336791992188	-780.1939086914062	-462.8923034667969	1494.93896484375	-580.0458374023438	-465.0406494140625	1478.424072265625	-471.2137756347656	-380.6573791503906	1351.57421875	-454.1520690917969	-355.2485046386719	1136.421630859375	-451.0834350585938	-382.0712585449219	1122.552124023438	-534.8056030273438	-449.0467834472656	906.62890625	-379.5653381347656	-370.1095275878906	882.1490478515625	-420.3594360351562	-352.66162109375	1024.80712890625	-431.4687194824219	-484.3616943359375	723.9662475585938	-380.1777648925781	-390.0245361328125	813.0380859375	-405.1937255859375	-442.865966796875	827.6365966796875	-357.5008850097656	-703.0008544921875	1506.778442382812	-732.317626953125	-735.9747924804688	1450.25146484375	-802.1792602539062	-786.2157592773438	1181.877807617188	-900.471923828125	-726.5540161132812	1153.526489257812	-829.5831909179688	-928.7601928710938	970.5985107421875	-824.1405029296875	-897.9954833984375	952.6085205078125	-905.0537109375	-830.204345703125	1115.806884765625	-907.1243286132812	-962.6504516601562	785.8474731445312	-806.5980834960938	-974.1864013671875	884.0759887695312	-822.8988647460938	-936.204833984375	874.9778442382812	-892.8209838867188	-640.7606201171875	1681.277954101562	-653.380126953125	-606.1193237304688	1722.4365234375	-441.8004455566406	-716.5170288085938	1735.11474609375	-504.481201171875	-518.7022094726562	1675.479125976562	-592.051025390625	-460.4248352050781	991.4295043945312	-498.0119934082031	-748.0185546875	1015.705505371094	-734.0640869140625	-773.1377563476562	1038.922973632812	-638.5447998046875	-591.5606079101562	1027.95556640625	-455.11767578125	-631.7864990234375	516.1661987304688	-363.81591796875	-566.6910400390625	651.9888305664062	-391.0959167480469	-672.956787109375	46.50644683837891	-460.8114624023438	-640.4730834960938	281.4096984863281	-404.3720092773438	-774.6487426757812	84.21438598632812	-277.859619140625	-800.37890625	73.17479705810547	-337.984619140625	-678.3583374023438	51.42519760131836	-347.5963134765625	-714.8065185546875	50.5977668762207	-534.1463012695312	-720.3517456054688	516.936279296875	-748.6739501953125	-782.1534423828125	783.5846557617188	-718.4467163085938	-606.8739624023438	33.08557510375977	-837.9335327148438	-709.5091552734375	392.8935241699219	-743.677978515625	-774.8131103515625	43.39913558959961	-693.6947021484375	-708.5167236328125	48.04502487182617	-683.0808715820312	-719.6749877929688	26.87058639526367	-811.3613891601562	-528.139404296875	42.92233657836914	-805.0319213867188	
501	5	-560.4526977539062	1056.7431640625	-740.0797729492188	-477.1086120605469	1052.421142578125	-651.615234375	-522.994384765625	1092.815185546875	-696.7341918945312	-714.7557373046875	1295.109619140625	-499.05908203125	-499.5523986816406	1253.62255859375	-711.0107421875	-542.8042602539062	1518.00244140625	-640.9434814453125	-688.7280883789062	1410.112670898438	-505.1546020507812	-570.8394165039062	1351.85693359375	-775.2595825195312	-467.8200073242188	1492.975341796875	-576.0213012695312	-468.6681518554688	1476.291625976562	-467.2466735839844	-384.6187744140625	1348.9619140625	-451.4953918457031	-360.3924865722656	1133.558959960938	-449.2914733886719	-388.5048522949219	1119.9072265625	-532.6607666015625	-455.5565795898438	904.7833251953125	-376.3733215332031	-377.2992858886719	879.4171142578125	-417.9410095214844	-358.5733642578125	1021.869201660156	-429.6495056152344	-492.81201171875	722.4708251953125	-376.3838500976562	-397.7850036621094	810.478759765625	-402.4358825683594	-450.020751953125	825.7886962890625	-354.2317504882812	-709.6558227539062	1505.314453125	-725.52099609375	-743.513671875	1448.909301757812	-795.08154296875	-795.5880126953125	1180.762084960938	-893.0184326171875	-735.0127563476562	1152.171875	-822.9769897460938	-937.7180786132812	969.577392578125	-815.604736328125	-907.8225708007812	951.7324829101562	-896.9190063476562	-839.7940673828125	1114.809692382812	-899.2894897460938	-971.6615600585938	784.7919921875	-798.18505859375	-983.255859375	883.106689453125	-814.1026611328125	-946.006591796875	874.1173095703125	-884.48583984375	-646.4566040039062	1679.704956054688	-646.9368896484375	-609.5782470703125	1720.355834960938	-435.6826171875	-720.6410522460938	1733.143920898438	-497.0805053710938	-523.6422119140625	1673.844604492188	-586.9622192382812	-464.7644958496094	989.2698974609375	-494.9705200195312	-754.7576904296875	1014.387634277344	-727.6123657226562	-778.9026489257812	1037.42333984375	-631.7952880859375	-595.3099365234375	1025.97900390625	-450.4271850585938	-636.3177490234375	515.275634765625	-358.7619934082031	-569.862060546875	649.99853515625	-386.9534912109375	-690.1998291015625	43.60516738891602	-437.7372741699219	-650.6608276367188	280.0577697753906	-390.9831848144531	-786.988037109375	89.88417816162109	-254.0797424316406	-814.1515502929688	77.61109161376953	-313.2779541015625	-693.1727905273438	52.22404098510742	-324.6393432617188	-733.3746948242188	46.58032989501953	-510.2536926269531	-723.3038330078125	516.1707153320312	-745.4072265625	-787.33935546875	782.0744018554688	-712.6961059570312	-606.8319702148438	33.50629043579102	-837.6153564453125	-711.3948364257812	392.1648559570312	-741.1585083007812	-775.080322265625	42.89310073852539	-693.272705078125	-708.6482543945312	47.75182723999023	-682.7689819335938	-719.7137451171875	26.89756202697754	-811.3196411132812	-528.1234130859375	43.28267669677734	-804.710205078125	
